<svg width="8" height="9" viewBox="0 0 8 9" fill="none" xmlns="http://www.w3.org/2000/svg">
<path d="M4.448 7.552C4.97067 7.552 5.45067 7.46133 5.888 7.28C6.15772 7.16441 6.4023 7.01789 6.62176 6.84043C6.85216 6.65413 7.19885 6.64907 7.39327 6.87266V6.87266C7.54932 7.05211 7.55454 7.32116 7.38248 7.48532C7.06501 7.78821 6.69485 8.0291 6.272 8.208C5.71733 8.44267 5.104 8.56 4.432 8.56C3.568 8.56 2.8 8.37867 2.128 8.016C1.456 7.64267 0.933333 7.13067 0.56 6.48C0.186667 5.82933 0 5.09333 0 4.272C0 3.45067 0.176 2.71467 0.528 2.064C0.890667 1.41333 1.38667 0.906667 2.016 0.544C2.64533 0.181333 3.36 0 4.16 0C4.90667 0 5.57867 0.170667 6.176 0.512C6.784 0.853333 7.264 1.328 7.616 1.936V1.936C8.26108 3.01745 7.28578 4.19221 6.0497 4.43256L3.26422 4.97418C2.20579 5.17999 1.55345 6.35088 2.432 6.976V6.976C2.99733 7.36 3.66933 7.552 4.448 7.552ZM4.16 0.976C3.57333 0.976 3.04533 1.11467 2.576 1.392C2.11733 1.65867 1.75467 2.03733 1.488 2.528C1.232 3.008 1.104 3.56267 1.104 4.192V4.192C1.104 4.38383 1.27783 4.51337 1.46615 4.47682L5.06764 3.77788C6.16957 3.56403 6.93225 2.3945 6.08 1.664V1.664C5.55733 1.20533 4.91733 0.976 4.16 0.976Z" fill="#3ABD67"/>
</svg>
